# xmcd
#
# Track frame offsets:
#       150
#       11282
#       23183
#       34584
#       46080
#       56959
#       68172
#       79058
#       95474
#       106416
#       119574
#       132697
#       145100
#       156634
#
# Disc length: 2264 seconds
#
# Revision: 0
# Processed by: cddbd v1.5.2PL0 Copyright (c) Steve Scherf et al.
# Submitted via: WaveLab 4.01
#
DISCID=c108d60e
DTITLE=W&Jr - W&Jr
DYEAR=1900
DGENRE=
TTITLE0=ESFREGA
TTITLE1=BAR NO CARRO
TTITLE2=Tudo certo entao
TTITLE3=Sai fora
TTITLE4=O munda da voltas
TTITLE5=Eu vou
TTITLE6=To legal
TTITLE7=Saida de emergencia
TTITLE8=Diamante
TTITLE9=Assim nao da
TTITLE10=Ninguem prende ninguem
TTITLE11=Vai
TTITLE12=Fotografia - Coracao quebrado
TTITLE13=Gato carente (miau)
EXTD=
EXTT0=
EXTT1=
EXTT2=
EXTT3=
EXTT4=
EXTT5=
EXTT6=
EXTT7=
EXTT8=
EXTT9=
EXTT10=
EXTT11=
EXTT12=
EXTT13=
PLAYORDER=
